<svg width="70" height="70" viewBox="0 0 70 70" fill="none" xmlns="http://www.w3.org/2000/svg">
<mask id="mask0_7841_158" style="mask-type:alpha" maskUnits="userSpaceOnUse" x="0" y="0" width="70" height="70">
<path d="M69.165 34.59C69.1657 39.1321 68.2719 43.63 66.5344 47.8266C64.797 52.0232 62.25 55.8364 59.0389 59.0485C55.8278 62.2605 52.0155 64.8085 47.8197 66.5469C43.624 68.2853 39.1269 69.18 34.5854 69.18C25.4128 69.18 16.6158 65.5357 10.1298 59.0488C3.64379 52.5619 0 43.7638 0 34.59C0 25.4162 3.64379 16.6181 10.1298 10.1312C16.6158 3.64428 25.4128 0 34.5854 0C39.1269 -6.22939e-08 43.624 0.894736 47.8197 2.63312C52.0155 4.3715 55.8278 6.91946 59.0389 10.1315C62.25 13.3436 64.797 17.1568 66.5344 21.3534C68.2719 25.55 69.1657 30.0478 69.165 34.59Z" fill="#F1F3F6"/>
</mask>
<g mask="url(#mask0_7841_158)">
<path d="M62.7211 73.6782H7.85205C7.9519 72.7067 8.44663 69.3291 10.9157 65.0118C13.8478 59.8774 26.9194 60.6083 27.3596 59.8774C27.5503 59.5596 27.6592 58.2658 27.7228 56.9084C27.7999 55.147 27.7999 53.2766 27.7999 53.2766L35.2889 55.4829L42.7778 53.2766C42.7778 53.2766 42.7778 55.1333 42.8504 56.9084C42.9185 58.2703 43.0229 59.5823 43.2181 59.9046C43.6719 60.6355 56.7254 59.9046 59.662 65.0391C62.1265 69.3291 62.6258 72.7067 62.7211 73.6782Z" fill="#E1A387"/>
<path d="M62.7211 73.6782H7.85205C7.9519 72.7067 8.44663 69.3291 10.9157 65.0118C13.3848 60.6945 23.125 60.5175 26.3475 60.1361C26.933 60.0635 27.3006 59.9909 27.3687 59.8774C27.3687 59.8774 35.1527 70.0101 43.2271 59.8774C43.2998 60.0045 43.7627 60.0862 44.4889 60.1679C47.9202 60.5311 57.2474 60.7762 59.6711 65.0118C62.1265 69.3291 62.6258 72.7067 62.7211 73.6782Z" fill="#860018"/>
<path d="M44.4802 60.1679C38.126 69.0068 30.5462 64.1629 26.3252 60.1361C26.9107 60.0635 27.2783 59.9909 27.3464 59.8774C27.3464 59.8774 35.1304 70.0101 43.2048 59.8774C43.2911 60.0045 43.754 60.0862 44.4802 60.1679Z" fill="#6B1524"/>
<path d="M22.4715 37.9777C22.4715 37.9777 18.9993 32.1123 17.5651 37.1378C16.1308 42.1633 19.5984 44.5603 21.8723 44.0836C24.1463 43.6069 22.4715 37.9777 22.4715 37.9777Z" fill="#E1A387"/>
<path d="M22.0676 38.9355C22.0676 38.9355 19.6756 35.222 18.836 36.7202C18.3249 37.7793 18.119 38.9599 18.2414 40.1295C18.2414 40.1295 18.718 38.0367 20.2748 39.2215C20.2748 39.2215 18.777 42.5719 21.8316 41.614C21.8134 41.6276 23.0706 40.6107 22.0676 38.9355Z" fill="#CE8D75"/>
<path d="M47.394 37.9777C47.394 37.9777 50.8662 32.1123 52.3004 37.1378C53.7347 42.1633 50.267 44.5603 47.9931 44.0836C45.7192 43.6069 47.394 37.9777 47.394 37.9777Z" fill="#E1A387"/>
<path d="M47.4438 39.326C47.4438 39.326 49.8357 35.6125 50.6754 37.1106C51.1866 38.1697 51.394 39.3499 51.2745 40.5199C51.2745 40.5199 50.7934 38.4271 49.2366 39.612C49.2366 39.612 50.7344 42.9623 47.6798 42.0044C47.6798 42.018 46.4271 41.0011 47.4438 39.326Z" fill="#CE8D75"/>
<path d="M47.4843 47.552C47.2211 51.8647 42.3056 55.0562 39.0922 56.4817C37.2511 57.3403 35.1849 57.5915 33.1918 57.1989C21.0461 53.6262 21.391 45.3956 21.9357 43.0849C22.4803 40.7742 21.7359 36.2753 23.1611 30.9365C23.3446 30.2456 23.6178 29.5817 23.9736 28.9617C26.1476 25.1665 30.7817 23.9453 30.7817 23.9453C38.8108 18.7564 44.4297 23.8545 46.2816 28.0311C46.4046 28.3038 46.5137 28.5826 46.6084 28.8664C48.0108 33.1655 47.7567 42.7126 47.4843 47.552Z" fill="#F2C2AC"/>
<path fill-rule="evenodd" clip-rule="evenodd" d="M43.3917 20.3506C43.4239 20.3426 43.4562 20.3348 43.4886 20.3273C43.7649 20.2594 44.0454 20.2094 44.3282 20.1775C44.565 20.1799 44.8015 20.1966 45.0363 20.2274C45.2858 20.2661 45.5317 20.3253 45.7715 20.4045C49.2664 21.5803 49.5433 27.0552 49.0712 31.8219C49.0349 32.1579 48.9986 32.4938 48.9578 32.8207C48.7268 34.6522 48.4011 36.4706 47.9819 38.2684C47.9398 38.4564 47.8995 38.6219 47.8651 38.7627C47.8439 38.8497 47.8251 38.9272 47.8095 38.9947C47.7595 39.2036 47.7277 39.3171 47.7277 39.3171L47.6415 38.7451V38.6679C47.4554 37.2379 46.7338 35.3902 45.8533 33.5107C44.8249 31.4315 43.7069 29.3985 42.5025 27.4174C40.4224 28.0933 37.2869 29.0135 33.2825 29.9015C32.5018 30.074 31.6939 30.2465 30.8452 30.4145C29.6923 30.6445 28.482 30.8684 27.2142 31.0863C22.1807 31.9353 19.8886 30.4599 18.8855 28.5622C18.8052 28.4148 18.7325 28.2632 18.6677 28.1083C17.7282 25.8384 18.4044 23.1736 18.4044 23.1736C18.6677 23.732 19.2486 23.7864 20.0838 23.4914C20.2384 23.4376 20.3899 23.3755 20.5377 23.3052C21.6597 22.8109 23.1376 21.8559 24.8467 20.7515C27.7213 18.894 31.25 16.6138 34.8393 15.3925C35.5502 15.1423 36.3008 15.0238 37.0542 15.0429C37.411 15.0555 37.7654 15.1057 38.1117 15.1927C39.237 15.4998 40.2562 16.1107 41.0574 16.9587C41.1799 17.0858 41.3025 17.2129 41.4205 17.3445C42.148 18.1863 42.7685 19.1149 43.2678 20.1092C43.3098 20.1894 43.3511 20.2699 43.3917 20.3506Z" fill="#A16929"/>
<path d="M22.462 23.5853C22.3123 24.0393 21.8266 32.9644 22.2896 37.0139L26.5696 25.7871L22.462 23.5853Z" fill="#A16929"/>
<path d="M41.4298 17.3264C40.3269 18.5748 39.2058 19.8005 37.9804 20.9582C34.5899 24.1814 30.6639 26.9779 26.0888 28.2218C23.8194 28.8301 21.1688 29.2114 18.8858 28.5622C18.8055 28.4147 18.7328 28.2632 18.668 28.1083C18.8631 28.1673 19.0583 28.2127 19.2716 28.2581C23.3565 29.0934 27.8953 27.6089 31.4128 25.5342C35.1006 23.257 38.3667 20.3587 41.0667 16.9677C41.1893 17.0676 41.3118 17.1947 41.4298 17.3264Z" fill="#C98643"/>
<path d="M38.121 15.1745C36.0513 18.5839 33.3326 21.5892 30.1827 23.5368C27.6229 25.1166 24.7362 25.7068 21.8541 24.7398C21.1432 24.5191 20.5224 24.0749 20.084 23.4732C20.2386 23.4195 20.3901 23.3573 20.5379 23.2871C20.806 23.5831 21.1319 23.821 21.4955 23.9862C23.0188 24.6676 24.7243 24.8271 26.3475 24.4402C29.107 23.7728 31.508 21.9251 33.4325 19.9004C34.8213 18.4195 36.0393 16.787 37.0635 15.0338C37.4199 15.0434 37.7744 15.0906 38.121 15.1745Z" fill="#C98643"/>
<path d="M43.6904 20.9264C41.6958 23.2608 39.4728 25.3899 37.0547 27.282C35.8559 28.2351 34.596 29.1086 33.283 29.8969C32.5023 30.0694 31.6945 30.2419 30.8457 30.4099C33.3543 29.2705 35.6696 27.7465 37.7083 25.8929C39.7236 24.1165 41.5864 22.1742 43.2773 20.0865C43.4226 20.368 43.5588 20.6495 43.6904 20.9264Z" fill="#C98643"/>
<path d="M27.2916 33.8601C25.9299 34.6954 25.1175 36.7428 25.9299 38.0639C25.9663 38.132 26.107 38.1048 26.0979 38.0276C26.0335 37.4164 26.1078 36.7985 26.3153 36.22C26.5227 35.6415 26.858 35.1173 27.2961 34.6864C27.8814 34.1527 28.642 33.8523 29.4339 33.842C30.3416 33.7829 30.741 34.5956 31.4536 34.8725C31.5988 34.9315 31.7849 34.8362 31.735 34.6864C31.1722 32.9885 28.685 33.0157 27.2916 33.8601Z" fill="#390A0A"/>
<path d="M32.0982 37.6735C32.0982 39.8753 30.7366 41.6639 29.0754 41.6639C27.4142 41.6639 26.0571 39.8753 26.0571 37.6735C26.0571 35.4717 27.4188 33.6831 29.0754 33.6831C30.7321 33.6831 32.0982 35.4717 32.0982 37.6735Z" fill="white"/>
<path d="M31.4583 37.7915C31.4583 39.4304 30.428 40.7605 29.1571 40.7605C27.8863 40.7605 26.856 39.4304 26.856 37.7915C26.856 36.1527 27.8863 34.818 29.1571 34.818C30.428 34.818 31.4583 36.1618 31.4583 37.7915Z" fill="#3D79CA"/>
<path d="M31.0904 37.8369C31.0904 39.1989 30.2462 40.3429 29.2068 40.3429C28.1674 40.3429 27.3232 39.2216 27.3232 37.8369C27.3232 36.4523 28.1674 35.331 29.2068 35.331C30.2462 35.331 31.0904 36.4569 31.0904 37.8369Z" fill="#390A0A"/>
<path d="M31.458 35.6806C31.458 35.9529 30.9225 36.1708 30.2643 36.1708C29.6062 36.1708 29.0752 35.9529 29.0752 35.6806C29.0752 35.4082 29.6108 35.1857 30.2643 35.1857C30.9179 35.1857 31.458 35.4036 31.458 35.6806Z" fill="white"/>
<path d="M42.6329 33.8601C43.9945 34.6954 44.8069 36.7428 43.9945 38.0639C43.9582 38.132 43.8175 38.1048 43.8266 38.0276C43.8909 37.4164 43.8166 36.7985 43.6092 36.22C43.4017 35.6415 43.0664 35.1173 42.6283 34.6864C42.0447 34.153 41.2856 33.8526 40.4951 33.842C39.5874 33.7829 39.1834 34.5956 38.4708 34.8725C38.3256 34.9315 38.1395 34.8362 38.1894 34.6864C38.7522 32.9885 41.2395 33.0157 42.6329 33.8601Z" fill="#390A0A"/>
<path d="M43.6493 37.6735C43.6493 39.8753 42.2877 41.6639 40.6311 41.6639C38.9744 41.6639 37.6128 39.8753 37.6128 37.6735C37.6128 35.4717 38.9744 33.6831 40.6311 33.6831C42.2877 33.6831 43.6493 35.4717 43.6493 37.6735Z" fill="white"/>
<path d="M43.009 37.7915C43.009 39.4304 41.9787 40.7605 40.7079 40.7605C39.437 40.7605 38.4067 39.444 38.4067 37.7915C38.4067 36.1391 39.437 34.818 40.7034 34.818C41.9697 34.818 43.009 36.1618 43.009 37.7915Z" fill="#3D79CA"/>
<path d="M42.6462 37.8369C42.6462 39.1989 41.802 40.3429 40.7581 40.3429C39.7142 40.3429 38.8745 39.2216 38.8745 37.8369C38.8745 36.4523 39.7187 35.331 40.7581 35.331C41.7975 35.331 42.6462 36.4569 42.6462 37.8369Z" fill="#390A0A"/>
<path d="M43.0096 35.6806C43.0096 35.9529 42.4786 36.1708 41.8205 36.1708C41.1624 36.1708 40.6313 35.9529 40.6313 35.6806C40.6313 35.4082 41.1624 35.1857 41.8205 35.1857C42.4786 35.1857 43.0096 35.4036 43.0096 35.6806Z" fill="white"/>
<path d="M34.8755 35.7486C34.8755 35.7486 33.9678 34.8407 33.8044 38.073C33.641 41.3053 33.8044 44.6828 33.8044 44.6828C33.8044 44.6828 31.6621 43.4299 32.3747 45.2185C32.7605 46.181 33.6682 46.6758 34.6441 46.93C34.9985 47.0325 35.3749 47.0314 35.7288 46.9268C36.0827 46.8223 36.3992 46.6186 36.6411 46.3399C36.8953 46.0902 38.2206 44.7464 37.803 44.3287C37.6033 44.1245 36.4414 44.6057 36.1464 44.6828C36.1373 44.6828 36.4822 35.0359 34.8755 35.7486Z" fill="#E1A387"/>
<path d="M40.2226 48.8367C40.2226 48.8367 36.0152 56.0503 30.2056 49.1091C30.2056 49.1091 33.5915 47.9651 34.8306 48.982L35.2844 49.495C35.2844 49.495 36.5916 47.8834 40.2226 48.8367Z" fill="#CE8D75"/>
<path d="M40.2226 48.8367C40.2226 48.8367 36.0152 56.0504 30.2056 49.1091C30.2373 49.1091 35.9153 51.7149 40.2226 48.8367Z" fill="#E1A387"/>
<path d="M32.6613 32.2149C32.6613 32.9775 30.716 32.5476 28.3384 32.5476C25.9609 32.5476 24.0156 32.9775 24.0156 32.2149C24.0156 31.4523 25.9566 29.7858 28.3384 29.7858C30.7203 29.7858 32.6613 31.4523 32.6613 32.2149Z" fill="#343434"/>
<path d="M45.149 32.2149C45.149 32.9775 43.2081 32.5476 40.8262 32.5476C38.4444 32.5476 36.5034 32.9775 36.5034 32.2149C36.5034 31.4523 38.4444 29.7858 40.8262 29.7858C43.2081 29.7858 45.149 31.4523 45.149 32.2149Z" fill="#343434"/>
</g>
</svg>
