<svg width="116" height="116" viewBox="0 0 116 116" fill="none" xmlns="http://www.w3.org/2000/svg">
<mask id="mask0_7844_106" style="mask-type:alpha" maskUnits="userSpaceOnUse" x="0" y="0" width="116" height="116">
<path d="M115.65 58.4938C115.651 66.0451 114.165 73.5228 111.277 80.4997C108.388 87.4766 104.154 93.8162 98.8153 99.1562C93.4768 104.496 87.1389 108.732 80.1634 111.622C73.1879 114.512 65.7115 116 58.1611 116C42.9116 116 28.2866 109.941 17.5035 99.1568C6.72044 88.3723 0.662598 73.7454 0.662598 58.4938C0.662598 43.2421 6.72044 28.6152 17.5035 17.8307C28.2866 7.04619 42.9116 0.987534 58.1611 0.987534C65.7115 0.987533 73.1879 2.47504 80.1634 5.36512C87.1389 8.25519 93.4768 12.4912 98.8153 17.8313C104.154 23.1714 108.388 29.5109 111.277 36.4878C114.165 43.4647 115.651 50.9424 115.65 58.4938Z" fill="#F1F3F6"/>
</mask>
<g mask="url(#mask0_7844_106)">
<path d="M104.937 123.478H13.7168C13.8828 121.863 14.7053 116.248 18.8102 109.07C23.6847 100.534 45.4164 101.749 46.1483 100.534C46.4653 100.006 46.6464 97.855 46.752 95.5983C46.8803 92.6699 46.8803 89.5604 46.8803 89.5604L59.3308 93.2285L71.7812 89.5604C71.7812 89.5604 71.7812 92.6473 71.9019 95.5983C72.0151 97.8625 72.1887 100.044 72.5131 100.58C73.2677 101.795 94.9693 100.58 99.8514 109.116C103.949 116.248 104.779 121.863 104.937 123.478Z" fill="#E1A387"/>
<path d="M104.937 123.478H13.7168C13.8828 121.863 14.7053 116.248 18.8102 109.07C22.915 101.893 39.1082 101.598 44.4657 100.964C45.4391 100.844 46.0503 100.723 46.1635 100.534C46.1635 100.534 59.1044 117.38 72.5283 100.534C72.649 100.746 73.4187 100.881 74.626 101.017C80.3306 101.621 95.837 102.029 99.8664 109.07C103.949 116.248 104.779 121.863 104.937 123.478Z" fill="#860018"/>
<path d="M74.6111 101.017C64.0471 115.712 51.4458 107.659 44.4282 100.964C45.4016 100.844 46.0128 100.723 46.126 100.534C46.126 100.534 59.0669 117.38 72.4908 100.534C72.6342 100.746 73.4038 100.881 74.6111 101.017Z" fill="#6B1524"/>
<path d="M38.0215 64.1258C38.0215 64.1258 32.249 54.3746 29.8645 62.7295C27.4801 71.0845 33.245 75.0695 37.0254 74.277C40.8058 73.4845 38.0215 64.1258 38.0215 64.1258Z" fill="#E1A387"/>
<path d="M37.3503 65.7183C37.3503 65.7183 33.3737 59.5446 31.9778 62.0352C31.1281 63.796 30.7858 65.7587 30.9893 67.7032C30.9893 67.7032 31.7815 64.2239 34.3697 66.1938C34.3697 66.1938 31.8796 71.7637 36.9579 70.1712C36.9277 70.1939 39.0179 68.5033 37.3503 65.7183Z" fill="#CE8D75"/>
<path d="M79.4556 64.1258C79.4556 64.1258 85.2281 54.3746 87.6126 62.7295C89.997 71.0845 84.2321 75.0695 80.4517 74.277C76.6713 73.4845 79.4556 64.1258 79.4556 64.1258Z" fill="#E1A387"/>
<path d="M79.5384 66.3674C79.5384 66.3674 83.515 60.1936 84.911 62.6843C85.7609 64.445 86.1057 66.4072 85.907 68.3523C85.907 68.3523 85.1071 64.873 82.519 66.8429C82.519 66.8429 85.009 72.4128 79.9308 70.8203C79.9308 70.843 77.8481 69.1524 79.5384 66.3674Z" fill="#CE8D75"/>
<path d="M79.6063 80.0432C79.1686 87.2132 70.9966 92.519 65.6542 94.8889C62.5935 96.3164 59.1583 96.734 55.8448 96.0814C35.6524 90.1416 36.2259 76.4582 37.1313 72.6166C38.0368 68.775 36.7993 61.2955 39.1687 52.4198C39.4738 51.2712 39.9279 50.1675 40.5194 49.1367C44.1338 42.8271 51.838 40.7969 51.838 40.7969C65.1864 32.1703 74.528 40.646 77.6066 47.5895C77.8112 48.0429 77.9926 48.5064 78.15 48.9782C80.4816 56.1256 80.059 71.9977 79.6063 80.0432Z" fill="#F2C2AC"/>
<path fill-rule="evenodd" clip-rule="evenodd" d="M72.8017 34.8206C72.8553 34.8073 72.909 34.7944 72.9627 34.7819C73.4222 34.6691 73.8885 34.5859 74.3587 34.5329C74.7524 34.5369 75.1454 34.5646 75.5358 34.6159C75.9507 34.6801 76.3596 34.7786 76.7582 34.9102C82.5684 36.865 83.0287 45.9672 82.244 53.8919C82.1836 54.4504 82.1232 55.0089 82.0553 55.5523C81.6714 58.5973 81.1299 61.6203 80.433 64.6091C80.363 64.9218 80.2959 65.1969 80.2388 65.431C80.2036 65.5755 80.1722 65.7044 80.1463 65.8167C80.0633 66.1639 80.0104 66.3526 80.0104 66.3526L79.8671 65.4016V65.2733C79.5577 62.8959 78.3579 59.8241 76.8941 56.6995C75.1844 53.2427 73.3257 49.8628 71.3234 46.5693C67.8652 47.6929 62.6525 49.2228 55.9951 50.6991C54.6972 50.9859 53.3541 51.2727 51.943 51.5519C50.0264 51.9343 48.0142 52.3067 45.9064 52.6689C37.5382 54.0803 33.7276 51.6274 32.06 48.4726C31.9264 48.2274 31.8055 47.9755 31.6978 47.7179C30.1358 43.9442 31.2601 39.5139 31.2601 39.5139C31.6978 40.4422 32.6637 40.5328 34.0521 40.0422C34.3091 39.9529 34.561 39.8496 34.8067 39.7327C36.672 38.911 39.1291 37.3233 41.9705 35.4872C46.7496 32.399 52.616 28.6082 58.5833 26.5777C59.7652 26.1617 61.013 25.9648 62.2656 25.9965C62.8588 26.0175 63.448 26.101 64.0237 26.2456C65.8946 26.7561 67.5889 27.7718 68.9209 29.1815C69.1247 29.3928 69.3284 29.6042 69.5246 29.823C70.734 31.2225 71.7656 32.7663 72.5957 34.4194C72.6656 34.5526 72.7342 34.6865 72.8017 34.8206Z" fill="#A16929"/>
<path d="M38.006 40.1984C37.757 40.9531 36.9496 55.7913 37.7193 62.5235L44.8349 43.8589L38.006 40.1984Z" fill="#A16929"/>
<path d="M69.5401 29.7928C67.7064 31.8684 65.8427 33.9061 63.8053 35.8307C58.1687 41.1893 51.6416 45.8385 44.0355 47.9065C40.2626 48.9179 35.8559 49.5518 32.0604 48.4726C31.9268 48.2273 31.806 47.9754 31.6982 47.7178C32.0227 47.8159 32.3472 47.8914 32.7018 47.9669C39.493 49.3556 47.0387 46.8876 52.8867 43.4385C59.0177 39.6525 64.4477 34.8341 68.9364 29.1966C69.1401 29.3626 69.3439 29.574 69.5401 29.7928Z" fill="#C98643"/>
<path d="M64.0395 26.2154C60.5986 31.8835 56.0787 36.8798 50.842 40.1177C46.5862 42.7441 41.7871 43.7253 36.9956 42.1177C35.8136 41.7509 34.7816 41.0124 34.0527 40.012C34.3097 39.9227 34.5616 39.8194 34.8073 39.7025C35.2531 40.1947 35.7949 40.5903 36.3994 40.8648C38.9319 41.9977 41.7673 42.2629 44.4658 41.6196C49.0536 40.5101 53.0453 37.4383 56.2447 34.0722C58.5537 31.6101 60.5786 28.8961 62.2813 25.9814C62.8739 25.9974 63.4632 26.0759 64.0395 26.2154Z" fill="#C98643"/>
<path d="M73.2983 35.7779C69.9822 39.6589 66.2865 43.1986 62.2664 46.3442C60.2734 47.9287 58.1787 49.3809 55.9959 50.6915C54.698 50.9783 53.3549 51.2651 51.9438 51.5444C56.1143 49.6501 59.9637 47.1164 63.353 44.0347C66.7034 41.0814 69.8004 37.8524 72.6116 34.3816C72.853 34.8496 73.0794 35.3175 73.2983 35.7779Z" fill="#C98643"/>
<path d="M46.0353 57.2804C43.7715 58.6691 42.4209 62.0729 43.7715 64.2692C43.8319 64.3824 44.0658 64.3371 44.0507 64.2088C43.9437 63.1927 44.0672 62.1655 44.4121 61.2037C44.757 60.2419 45.3145 59.3704 46.0428 58.654C47.0159 57.7668 48.2803 57.2674 49.5968 57.2502C51.106 57.152 51.77 58.503 52.9547 58.9634C53.1961 59.0615 53.5055 58.903 53.4225 58.654C52.4868 55.8313 48.3518 55.8765 46.0353 57.2804Z" fill="#390A0A"/>
<path d="M54.0258 63.6201C54.0258 67.2806 51.7621 70.2543 49.0004 70.2543C46.2386 70.2543 43.9824 67.2806 43.9824 63.6201C43.9824 59.9596 46.2462 56.986 49.0004 56.986C51.7546 56.986 54.0258 59.9596 54.0258 63.6201Z" fill="white"/>
<path d="M52.9624 63.8163C52.9624 66.5409 51.2495 68.7523 49.1367 68.7523C47.0239 68.7523 45.311 66.5409 45.311 63.8163C45.311 61.0918 47.0239 58.8728 49.1367 58.8728C51.2495 58.8728 52.9624 61.1068 52.9624 63.8163Z" fill="#3D79CA"/>
<path d="M52.3508 63.8918C52.3508 66.1561 50.9473 68.058 49.2193 68.058C47.4914 68.058 46.0879 66.1938 46.0879 63.8918C46.0879 61.5899 47.4914 59.7257 49.2193 59.7257C50.9473 59.7257 52.3508 61.5974 52.3508 63.8918Z" fill="#390A0A"/>
<path d="M52.962 60.3068C52.962 60.7597 52.0716 61.122 50.9775 61.122C49.8833 61.122 49.0005 60.7597 49.0005 60.3068C49.0005 59.854 49.8909 59.4842 50.9775 59.4842C52.064 59.4842 52.962 59.8464 52.962 60.3068Z" fill="white"/>
<path d="M71.5397 57.2804C73.8034 58.6691 75.1541 62.0729 73.8034 64.2692C73.743 64.3824 73.5091 64.3371 73.5242 64.2088C73.6313 63.1927 73.5077 62.1655 73.1628 61.2037C72.8179 60.2419 72.2605 59.3704 71.5321 58.654C70.5618 57.7673 69.2998 57.2678 67.9856 57.2502C66.4765 57.152 65.805 58.503 64.6203 58.9634C64.3788 59.0615 64.0694 58.903 64.1524 58.654C65.0881 55.8313 69.2232 55.8765 71.5397 57.2804Z" fill="#390A0A"/>
<path d="M73.2302 63.6201C73.2302 67.2806 70.9665 70.2543 68.2123 70.2543C65.4581 70.2543 63.1943 67.2806 63.1943 63.6201C63.1943 59.9596 65.4581 56.986 68.2123 56.986C70.9665 56.986 73.2302 59.9596 73.2302 63.6201Z" fill="white"/>
<path d="M72.1655 63.8163C72.1655 66.5409 70.4527 68.7523 68.3399 68.7523C66.227 68.7523 64.5142 66.5636 64.5142 63.8163C64.5142 61.0691 66.227 58.8728 68.3323 58.8728C70.4376 58.8728 72.1655 61.1068 72.1655 63.8163Z" fill="#3D79CA"/>
<path d="M71.562 63.8918C71.562 66.1561 70.1585 68.058 68.423 68.058C66.6874 68.058 65.2915 66.1938 65.2915 63.8918C65.2915 61.5899 66.695 59.7257 68.423 59.7257C70.151 59.7257 71.562 61.5974 71.562 63.8918Z" fill="#390A0A"/>
<path d="M72.1663 60.3068C72.1663 60.7597 71.2835 61.122 70.1894 61.122C69.0952 61.122 68.2124 60.7597 68.2124 60.3068C68.2124 59.854 69.0952 59.4842 70.1894 59.4842C71.2835 59.4842 72.1663 59.8464 72.1663 60.3068Z" fill="white"/>
<path d="M58.6437 60.42C58.6437 60.42 57.1345 58.9106 56.8629 64.2843C56.5912 69.658 56.8629 75.2732 56.8629 75.2732C56.8629 75.2732 53.3013 73.1902 54.486 76.1638C55.1274 77.7639 56.6365 78.5865 58.2589 79.0092C58.8482 79.1796 59.474 79.1777 60.0623 79.0039C60.6506 78.83 61.1768 78.4914 61.579 78.028C62.0015 77.6129 64.2049 75.3789 63.5107 74.6846C63.1787 74.3449 61.247 75.1449 60.7565 75.2732C60.7414 75.2732 61.3149 59.2351 58.6437 60.42Z" fill="#E1A387"/>
<path d="M67.5328 82.1791C67.5328 82.1791 60.5379 94.1718 50.8794 82.632C50.8794 82.632 56.5085 80.73 58.5685 82.4206L59.3231 83.2735C59.3231 83.2735 61.4962 80.5942 67.5328 82.1791Z" fill="#CE8D75"/>
<path d="M67.5328 82.1791C67.5328 82.1791 60.5379 94.1719 50.8794 82.632C50.9322 82.632 60.3719 86.9641 67.5328 82.1791Z" fill="#E1A387"/>
<path d="M54.9623 54.5451C54.9623 55.8129 51.7283 55.0983 47.7756 55.0983C43.8229 55.0983 40.5889 55.8129 40.5889 54.5451C40.5889 53.2773 43.8157 50.5068 47.7756 50.5068C51.7355 50.5068 54.9623 53.2773 54.9623 54.5451Z" fill="#343434"/>
<path d="M75.724 54.5451C75.724 55.8129 72.4972 55.0983 68.5373 55.0983C64.5774 55.0983 61.3506 55.8129 61.3506 54.5451C61.3506 53.2773 64.5774 50.5068 68.5373 50.5068C72.4972 50.5068 75.724 53.2773 75.724 54.5451Z" fill="#343434"/>
</g>
</svg>
