<svg width="28" height="18" viewBox="0 0 28 18" fill="none" xmlns="http://www.w3.org/2000/svg">
<path d="M14.183 11.985C14.2589 11.0214 13.9895 10.0622 13.423 9.27901C12.8565 8.4958 12.0299 7.93965 11.091 7.71C11.7963 7.43754 12.3983 6.95082 12.8125 6.31832C13.2267 5.68582 13.4322 4.93937 13.4 4.184C13.4 0.82 10.889 0 7.988 0H0V16.888H8.212C11.291 16.888 14.183 15.416 14.183 11.985ZM3.724 2.883H7.218C8.561 2.883 9.771 3.259 9.771 4.813C9.771 6.247 8.83 6.824 7.5 6.824H3.724V2.883ZM3.724 14.02V9.369H7.782C9.421 9.369 10.458 10.05 10.458 11.78C10.458 13.486 9.22 14.019 7.705 14.019L3.724 14.02Z" fill="#0C0C41"/>
<path d="M21.5621 17.208C22.8508 17.312 24.1348 16.9559 25.1858 16.2029C26.2369 15.4499 26.987 14.3487 27.3031 13.095H24.3311C24.0957 13.5956 23.7169 14.0149 23.2428 14.2998C22.7686 14.5846 22.2205 14.7222 21.6681 14.695C21.2539 14.7348 20.8362 14.6808 20.4458 14.5369C20.0554 14.3931 19.7024 14.1631 19.4131 13.8641C19.1238 13.5651 18.9056 13.2048 18.7747 12.8099C18.6439 12.4149 18.6036 11.9956 18.6571 11.583H27.5051C27.5201 11.383 27.5341 11.17 27.5341 10.955C27.5341 7.338 25.4121 4.322 21.5641 4.322C20.7183 4.30395 19.8779 4.4605 19.0953 4.78188C18.3128 5.10326 17.6049 5.58256 17.0159 6.18983C16.4269 6.79711 15.9695 7.51931 15.6722 8.31133C15.3749 9.10335 15.2442 9.94817 15.2881 10.793C15.2861 14.596 17.6901 17.208 21.5621 17.208ZM21.4621 6.854C21.8151 6.82838 22.1695 6.87779 22.502 6.99898C22.8345 7.12017 23.1376 7.31039 23.3914 7.55712C23.6451 7.80386 23.8437 8.10153 23.9741 8.43053C24.1045 8.75954 24.1638 9.11244 24.1481 9.466H18.6621C18.6639 9.1074 18.7391 8.75297 18.8829 8.42446C19.0267 8.09596 19.2361 7.80032 19.4984 7.55571C19.7606 7.31109 20.07 7.12266 20.4077 7.00199C20.7454 6.88133 21.1042 6.83096 21.4621 6.854Z" fill="#0C0C41"/>
<path d="M17.9731 0.887001H24.8431V2.55H17.9731V0.887001Z" fill="#0C0C41"/>
</svg>
